<mxfile host="65bd71144e">
    <diagram id="R2lEEEUBdFMjLlhIrx00" name="Page-1">
        <mxGraphModel dx="861" dy="501" grid="0" gridSize="10" guides="1" tooltips="1" connect="1" arrows="1" fold="1" page="0" pageScale="1" pageWidth="850" pageHeight="1100" background="#ffffff" math="0" shadow="1" extFonts="Permanent Marker^https://fonts.googleapis.com/css?family=Permanent+Marker">
            <root>
                <mxCell id="0"/>
                <mxCell id="1" parent="0"/>
                <mxCell id="C-vyLk0tnHw3VtMMgP7b-2" value="notes" style="shape=table;startSize=30;container=1;collapsible=1;childLayout=tableLayout;fixedRows=1;rowLines=0;fontStyle=1;align=center;resizeLast=1;rounded=1;fillColor=#F5AB50;strokeColor=#909090;fontColor=#1A1A1A;" parent="1" vertex="1">
                    <mxGeometry x="420" y="50" width="297" height="240" as="geometry"/>
                </mxCell>
                <mxCell id="C-vyLk0tnHw3VtMMgP7b-3" value="" style="shape=partialRectangle;collapsible=0;dropTarget=0;pointerEvents=0;fillColor=none;points=[[0,0.5],[1,0.5]];portConstraint=eastwest;top=0;left=0;right=0;bottom=1;rounded=1;strokeColor=#909090;fontColor=#1A1A1A;" parent="C-vyLk0tnHw3VtMMgP7b-2" vertex="1">
                    <mxGeometry y="30" width="297" height="30" as="geometry"/>
                </mxCell>
                <mxCell id="C-vyLk0tnHw3VtMMgP7b-4" value="PK" style="shape=partialRectangle;overflow=hidden;connectable=0;fillColor=none;top=0;left=0;bottom=0;right=0;fontStyle=1;rounded=1;strokeColor=#909090;fontColor=#1A1A1A;" parent="C-vyLk0tnHw3VtMMgP7b-3" vertex="1">
                    <mxGeometry width="35" height="30" as="geometry"/>
                </mxCell>
                <mxCell id="C-vyLk0tnHw3VtMMgP7b-5" value="id int NOT NULL AUTO_INCREMENT" style="shape=partialRectangle;overflow=hidden;connectable=0;fillColor=none;top=0;left=0;bottom=0;right=0;align=left;spacingLeft=6;fontStyle=5;rounded=1;strokeColor=#909090;fontColor=#1A1A1A;" parent="C-vyLk0tnHw3VtMMgP7b-3" vertex="1">
                    <mxGeometry x="35" width="262" height="30" as="geometry"/>
                </mxCell>
                <mxCell id="C-vyLk0tnHw3VtMMgP7b-9" value="" style="shape=partialRectangle;collapsible=0;dropTarget=0;pointerEvents=0;fillColor=none;points=[[0,0.5],[1,0.5]];portConstraint=eastwest;top=0;left=0;right=0;bottom=0;rounded=1;strokeColor=#909090;fontColor=#1A1A1A;" parent="C-vyLk0tnHw3VtMMgP7b-2" vertex="1">
                    <mxGeometry y="60" width="297" height="30" as="geometry"/>
                </mxCell>
                <mxCell id="C-vyLk0tnHw3VtMMgP7b-10" value="" style="shape=partialRectangle;overflow=hidden;connectable=0;fillColor=none;top=0;left=0;bottom=0;right=0;rounded=1;strokeColor=#909090;fontColor=#1A1A1A;" parent="C-vyLk0tnHw3VtMMgP7b-9" vertex="1">
                    <mxGeometry width="35" height="30" as="geometry"/>
                </mxCell>
                <mxCell id="C-vyLk0tnHw3VtMMgP7b-11" value="title varchar(100) NOT NULL UNIQUE" style="shape=partialRectangle;overflow=hidden;connectable=0;fillColor=none;top=0;left=0;bottom=0;right=0;align=left;spacingLeft=6;rounded=1;strokeColor=#909090;fontColor=#1A1A1A;" parent="C-vyLk0tnHw3VtMMgP7b-9" vertex="1">
                    <mxGeometry x="35" width="262" height="30" as="geometry"/>
                </mxCell>
                <mxCell id="C-vyLk0tnHw3VtMMgP7b-13" value="categories" style="shape=table;startSize=30;container=1;collapsible=1;childLayout=tableLayout;fixedRows=1;rowLines=0;fontStyle=1;align=center;resizeLast=1;rounded=1;fillColor=#F5AB50;strokeColor=#909090;fontColor=#1A1A1A;" parent="1" vertex="1">
                    <mxGeometry x="24" y="343" width="312" height="164" as="geometry"/>
                </mxCell>
                <mxCell id="C-vyLk0tnHw3VtMMgP7b-14" value="" style="shape=partialRectangle;collapsible=0;dropTarget=0;pointerEvents=0;fillColor=none;points=[[0,0.5],[1,0.5]];portConstraint=eastwest;top=0;left=0;right=0;bottom=1;rounded=1;strokeColor=#909090;fontColor=#1A1A1A;" parent="C-vyLk0tnHw3VtMMgP7b-13" vertex="1">
                    <mxGeometry y="30" width="312" height="30" as="geometry"/>
                </mxCell>
                <mxCell id="C-vyLk0tnHw3VtMMgP7b-15" value="PK" style="shape=partialRectangle;overflow=hidden;connectable=0;fillColor=none;top=0;left=0;bottom=0;right=0;fontStyle=1;rounded=1;strokeColor=#909090;fontColor=#1A1A1A;" parent="C-vyLk0tnHw3VtMMgP7b-14" vertex="1">
                    <mxGeometry width="30" height="30" as="geometry"/>
                </mxCell>
                <mxCell id="C-vyLk0tnHw3VtMMgP7b-16" value="id int NOT NULL AUTO_INCREMENT" style="shape=partialRectangle;overflow=hidden;connectable=0;fillColor=none;top=0;left=0;bottom=0;right=0;align=left;spacingLeft=6;fontStyle=5;rounded=1;strokeColor=#909090;fontColor=#1A1A1A;" parent="C-vyLk0tnHw3VtMMgP7b-14" vertex="1">
                    <mxGeometry x="30" width="282" height="30" as="geometry"/>
                </mxCell>
                <mxCell id="C-vyLk0tnHw3VtMMgP7b-17" value="" style="shape=partialRectangle;collapsible=0;dropTarget=0;pointerEvents=0;fillColor=none;points=[[0,0.5],[1,0.5]];portConstraint=eastwest;top=0;left=0;right=0;bottom=0;rounded=1;strokeColor=#909090;fontColor=#1A1A1A;" parent="C-vyLk0tnHw3VtMMgP7b-13" vertex="1">
                    <mxGeometry y="60" width="312" height="30" as="geometry"/>
                </mxCell>
                <mxCell id="C-vyLk0tnHw3VtMMgP7b-18" value="" style="shape=partialRectangle;overflow=hidden;connectable=0;fillColor=none;top=0;left=0;bottom=0;right=0;rounded=1;strokeColor=#909090;fontColor=#1A1A1A;" parent="C-vyLk0tnHw3VtMMgP7b-17" vertex="1">
                    <mxGeometry width="30" height="30" as="geometry"/>
                </mxCell>
                <mxCell id="C-vyLk0tnHw3VtMMgP7b-19" value="category_name varchar(50) NOT NULL UNIQUE" style="shape=partialRectangle;overflow=hidden;connectable=0;fillColor=none;top=0;left=0;bottom=0;right=0;align=left;spacingLeft=6;rounded=1;strokeColor=#909090;fontColor=#1A1A1A;" parent="C-vyLk0tnHw3VtMMgP7b-17" vertex="1">
                    <mxGeometry x="30" width="282" height="30" as="geometry"/>
                </mxCell>
                <mxCell id="C-vyLk0tnHw3VtMMgP7b-23" value="users" style="shape=table;startSize=30;container=1;collapsible=1;childLayout=tableLayout;fixedRows=1;rowLines=0;fontStyle=1;align=center;resizeLast=1;rounded=1;fillColor=#F5AB50;strokeColor=#909090;fontColor=#1A1A1A;" parent="1" vertex="1">
                    <mxGeometry x="30" y="50" width="300" height="250" as="geometry"/>
                </mxCell>
                <mxCell id="C-vyLk0tnHw3VtMMgP7b-24" value="" style="shape=partialRectangle;collapsible=0;dropTarget=0;pointerEvents=0;fillColor=none;points=[[0,0.5],[1,0.5]];portConstraint=eastwest;top=0;left=0;right=0;bottom=1;rounded=1;strokeColor=#909090;fontColor=#1A1A1A;" parent="C-vyLk0tnHw3VtMMgP7b-23" vertex="1">
                    <mxGeometry y="30" width="300" height="30" as="geometry"/>
                </mxCell>
                <mxCell id="C-vyLk0tnHw3VtMMgP7b-25" value="PK" style="shape=partialRectangle;overflow=hidden;connectable=0;fillColor=none;top=0;left=0;bottom=0;right=0;fontStyle=1;rounded=1;strokeColor=#909090;fontColor=#1A1A1A;" parent="C-vyLk0tnHw3VtMMgP7b-24" vertex="1">
                    <mxGeometry width="30" height="30" as="geometry"/>
                </mxCell>
                <mxCell id="C-vyLk0tnHw3VtMMgP7b-26" value="id int NOT NULL AUTO_INCREMENT" style="shape=partialRectangle;overflow=hidden;connectable=0;fillColor=none;top=0;left=0;bottom=0;right=0;align=left;spacingLeft=6;fontStyle=5;rounded=1;strokeColor=#909090;fontColor=#1A1A1A;" parent="C-vyLk0tnHw3VtMMgP7b-24" vertex="1">
                    <mxGeometry x="30" width="270" height="30" as="geometry"/>
                </mxCell>
                <mxCell id="C-vyLk0tnHw3VtMMgP7b-27" value="" style="shape=partialRectangle;collapsible=0;dropTarget=0;pointerEvents=0;fillColor=none;points=[[0,0.5],[1,0.5]];portConstraint=eastwest;top=0;left=0;right=0;bottom=0;rounded=1;strokeColor=#909090;fontColor=#1A1A1A;" parent="C-vyLk0tnHw3VtMMgP7b-23" vertex="1">
                    <mxGeometry y="60" width="300" height="30" as="geometry"/>
                </mxCell>
                <mxCell id="C-vyLk0tnHw3VtMMgP7b-28" value="" style="shape=partialRectangle;overflow=hidden;connectable=0;fillColor=none;top=0;left=0;bottom=0;right=0;rounded=1;strokeColor=#909090;fontColor=#1A1A1A;" parent="C-vyLk0tnHw3VtMMgP7b-27" vertex="1">
                    <mxGeometry width="30" height="30" as="geometry"/>
                </mxCell>
                <mxCell id="C-vyLk0tnHw3VtMMgP7b-29" value="first_name varchar(50) NOT NULL" style="shape=partialRectangle;overflow=hidden;connectable=0;fillColor=none;top=0;left=0;bottom=0;right=0;align=left;spacingLeft=6;rounded=1;strokeColor=#909090;fontColor=#1A1A1A;" parent="C-vyLk0tnHw3VtMMgP7b-27" vertex="1">
                    <mxGeometry x="30" width="270" height="30" as="geometry"/>
                </mxCell>
                <mxCell id="zA4fir9lhN1XghX9136Q-4" value="category_note" style="shape=table;startSize=30;container=1;collapsible=1;childLayout=tableLayout;fixedRows=1;rowLines=0;fontStyle=1;align=center;resizeLast=1;rounded=1;fillColor=#F5AB50;strokeColor=#909090;fontColor=#1A1A1A;" parent="1" vertex="1">
                    <mxGeometry x="437" y="339" width="260" height="130" as="geometry"/>
                </mxCell>
                <mxCell id="zA4fir9lhN1XghX9136Q-5" value="" style="shape=partialRectangle;collapsible=0;dropTarget=0;pointerEvents=0;fillColor=none;points=[[0,0.5],[1,0.5]];portConstraint=eastwest;top=0;left=0;right=0;bottom=1;rounded=1;strokeColor=#909090;fontColor=#1A1A1A;" parent="zA4fir9lhN1XghX9136Q-4" vertex="1">
                    <mxGeometry y="30" width="260" height="30" as="geometry"/>
                </mxCell>
                <mxCell id="zA4fir9lhN1XghX9136Q-6" value="PK" style="shape=partialRectangle;overflow=hidden;connectable=0;fillColor=none;top=0;left=0;bottom=0;right=0;fontStyle=1;rounded=1;strokeColor=#909090;fontColor=#1A1A1A;" parent="zA4fir9lhN1XghX9136Q-5" vertex="1">
                    <mxGeometry width="30" height="30" as="geometry"/>
                </mxCell>
                <mxCell id="zA4fir9lhN1XghX9136Q-7" value="id int NOT NULL AUTO_INCREMENT" style="shape=partialRectangle;overflow=hidden;connectable=0;fillColor=none;top=0;left=0;bottom=0;right=0;align=left;spacingLeft=6;fontStyle=5;rounded=1;strokeColor=#909090;fontColor=#1A1A1A;" parent="zA4fir9lhN1XghX9136Q-5" vertex="1">
                    <mxGeometry x="30" width="230" height="30" as="geometry"/>
                </mxCell>
                <mxCell id="zA4fir9lhN1XghX9136Q-11" value="" style="shape=partialRectangle;collapsible=0;dropTarget=0;pointerEvents=0;fillColor=none;points=[[0,0.5],[1,0.5]];portConstraint=eastwest;top=0;left=0;right=0;bottom=0;rounded=1;strokeColor=#909090;fontColor=#1A1A1A;" parent="zA4fir9lhN1XghX9136Q-4" vertex="1">
                    <mxGeometry y="60" width="260" height="30" as="geometry"/>
                </mxCell>
                <mxCell id="zA4fir9lhN1XghX9136Q-12" value="FK1" style="shape=partialRectangle;overflow=hidden;connectable=0;fillColor=none;top=0;left=0;bottom=0;right=0;rounded=1;strokeColor=#909090;fontColor=#1A1A1A;" parent="zA4fir9lhN1XghX9136Q-11" vertex="1">
                    <mxGeometry width="30" height="30" as="geometry"/>
                </mxCell>
                <mxCell id="zA4fir9lhN1XghX9136Q-13" value="note_id int NOT NULL" style="shape=partialRectangle;overflow=hidden;connectable=0;fillColor=none;top=0;left=0;bottom=0;right=0;align=left;spacingLeft=6;rounded=1;strokeColor=#909090;fontColor=#1A1A1A;" parent="zA4fir9lhN1XghX9136Q-11" vertex="1">
                    <mxGeometry x="30" width="230" height="30" as="geometry"/>
                </mxCell>
                <mxCell id="zA4fir9lhN1XghX9136Q-8" value="" style="shape=partialRectangle;collapsible=0;dropTarget=0;pointerEvents=0;fillColor=none;points=[[0,0.5],[1,0.5]];portConstraint=eastwest;top=0;left=0;right=0;bottom=0;rounded=1;strokeColor=#909090;fontColor=#1A1A1A;" parent="zA4fir9lhN1XghX9136Q-4" vertex="1">
                    <mxGeometry y="90" width="260" height="30" as="geometry"/>
                </mxCell>
                <mxCell id="zA4fir9lhN1XghX9136Q-9" value="FK2" style="shape=partialRectangle;overflow=hidden;connectable=0;fillColor=none;top=0;left=0;bottom=0;right=0;rounded=1;strokeColor=#909090;fontColor=#1A1A1A;" parent="zA4fir9lhN1XghX9136Q-8" vertex="1">
                    <mxGeometry width="30" height="30" as="geometry"/>
                </mxCell>
                <mxCell id="zA4fir9lhN1XghX9136Q-10" value="category_id int NULL" style="shape=partialRectangle;overflow=hidden;connectable=0;fillColor=none;top=0;left=0;bottom=0;right=0;align=left;spacingLeft=6;rounded=1;strokeColor=#909090;fontColor=#1A1A1A;" parent="zA4fir9lhN1XghX9136Q-8" vertex="1">
                    <mxGeometry x="30" width="230" height="30" as="geometry"/>
                </mxCell>
                <mxCell id="zA4fir9lhN1XghX9136Q-17" value="" style="edgeStyle=entityRelationEdgeStyle;fontSize=12;html=1;endArrow=ERmany;startArrow=ERmany;exitX=1;exitY=0.5;exitDx=0;exitDy=0;entryX=0;entryY=0.5;entryDx=0;entryDy=0;strokeColor=#182E3E;fontColor=#1A1A1A;labelBackgroundColor=#EEEEEE;" parent="1" source="C-vyLk0tnHw3VtMMgP7b-14" target="zA4fir9lhN1XghX9136Q-8" edge="1">
                    <mxGeometry width="100" height="100" relative="1" as="geometry">
                        <mxPoint x="370" y="300" as="sourcePoint"/>
                        <mxPoint x="470" y="200" as="targetPoint"/>
                    </mxGeometry>
                </mxCell>
                <mxCell id="zA4fir9lhN1XghX9136Q-18" value="" style="edgeStyle=entityRelationEdgeStyle;fontSize=12;html=1;endArrow=ERmany;startArrow=ERmany;entryX=1;entryY=0.5;entryDx=0;entryDy=0;strokeColor=#182E3E;fontColor=#1A1A1A;labelBackgroundColor=#EEEEEE;" parent="1" target="zA4fir9lhN1XghX9136Q-11" edge="1">
                    <mxGeometry width="100" height="100" relative="1" as="geometry">
                        <mxPoint x="719" y="95" as="sourcePoint"/>
                        <mxPoint x="450" y="355" as="targetPoint"/>
                    </mxGeometry>
                </mxCell>
                <mxCell id="zA4fir9lhN1XghX9136Q-19" value="last_name varchar(50) NOT NULL" style="shape=partialRectangle;overflow=hidden;connectable=0;fillColor=none;top=0;left=0;bottom=0;right=0;align=left;spacingLeft=6;rounded=1;strokeColor=#909090;fontColor=#1A1A1A;" parent="1" vertex="1">
                    <mxGeometry x="70" y="140" width="220" height="30" as="geometry"/>
                </mxCell>
                <mxCell id="zA4fir9lhN1XghX9136Q-20" value="email varchar(100) NOT NULL UNIQUE" style="shape=partialRectangle;overflow=hidden;connectable=0;fillColor=none;top=0;left=0;bottom=0;right=0;align=left;spacingLeft=6;rounded=1;strokeColor=#909090;fontColor=#1A1A1A;" parent="1" vertex="1">
                    <mxGeometry x="70" y="170" width="240" height="30" as="geometry"/>
                </mxCell>
                <mxCell id="zA4fir9lhN1XghX9136Q-21" value="password varchar(15) NOT NULL" style="shape=partialRectangle;overflow=hidden;connectable=0;fillColor=none;top=0;left=0;bottom=0;right=0;align=left;spacingLeft=6;rounded=1;strokeColor=#909090;fontColor=#1A1A1A;" parent="1" vertex="1">
                    <mxGeometry x="70" y="200" width="220" height="30" as="geometry"/>
                </mxCell>
                <mxCell id="zA4fir9lhN1XghX9136Q-22" value="active tinyint NOT NULL" style="shape=partialRectangle;overflow=hidden;connectable=0;fillColor=none;top=0;left=0;bottom=0;right=0;align=left;spacingLeft=6;rounded=1;strokeColor=#909090;fontColor=#1A1A1A;" parent="1" vertex="1">
                    <mxGeometry x="70" y="260" width="230" height="30" as="geometry"/>
                </mxCell>
                <mxCell id="zA4fir9lhN1XghX9136Q-23" value="createdAt timestamp NULL DEFAULT NULL" style="shape=partialRectangle;overflow=hidden;connectable=0;fillColor=none;top=0;left=0;bottom=0;right=0;align=left;spacingLeft=6;rounded=1;strokeColor=#909090;fontColor=#1A1A1A;" parent="1" vertex="1">
                    <mxGeometry x="70" y="230" width="250" height="30" as="geometry"/>
                </mxCell>
                <mxCell id="zA4fir9lhN1XghX9136Q-24" value="createdAt timestamp NOT NULL" style="shape=partialRectangle;overflow=hidden;connectable=0;fillColor=none;top=0;left=0;bottom=0;right=0;align=left;spacingLeft=6;rounded=1;strokeColor=#909090;fontColor=#1A1A1A;" parent="1" vertex="1">
                    <mxGeometry x="455" y="140" width="220" height="30" as="geometry"/>
                </mxCell>
                <mxCell id="zA4fir9lhN1XghX9136Q-25" value="updatedAt timestamp NULL DEFAULT NULL" style="shape=partialRectangle;overflow=hidden;connectable=0;fillColor=none;top=0;left=0;bottom=0;right=0;align=left;spacingLeft=6;rounded=1;strokeColor=#909090;fontColor=#1A1A1A;" parent="1" vertex="1">
                    <mxGeometry x="455" y="170" width="257" height="30" as="geometry"/>
                </mxCell>
                <mxCell id="zA4fir9lhN1XghX9136Q-26" value="description text NOT NULL" style="shape=partialRectangle;overflow=hidden;connectable=0;fillColor=none;top=0;left=0;bottom=0;right=0;align=left;spacingLeft=6;rounded=1;strokeColor=#909090;fontColor=#1A1A1A;" parent="1" vertex="1">
                    <mxGeometry x="455" y="200" width="220" height="30" as="geometry"/>
                </mxCell>
                <mxCell id="zA4fir9lhN1XghX9136Q-27" value="can_delete tinyint NOT NULL" style="shape=partialRectangle;overflow=hidden;connectable=0;fillColor=none;top=0;left=0;bottom=0;right=0;align=left;spacingLeft=6;rounded=1;strokeColor=#909090;fontColor=#1A1A1A;" parent="1" vertex="1">
                    <mxGeometry x="455" y="227" width="220" height="30" as="geometry"/>
                </mxCell>
                <mxCell id="zA4fir9lhN1XghX9136Q-33" value="" style="shape=partialRectangle;collapsible=0;dropTarget=0;pointerEvents=0;fillColor=none;points=[[0,0.5],[1,0.5]];portConstraint=eastwest;top=0;left=0;right=0;bottom=0;rounded=1;strokeColor=#909090;fontColor=#1A1A1A;" parent="1" vertex="1">
                    <mxGeometry x="425" y="250" width="255" height="40" as="geometry"/>
                </mxCell>
                <mxCell id="zA4fir9lhN1XghX9136Q-34" value="FK1" style="shape=partialRectangle;overflow=hidden;connectable=0;fillColor=none;top=0;left=0;bottom=0;right=0;rounded=1;strokeColor=#909090;fontColor=#1A1A1A;" parent="zA4fir9lhN1XghX9136Q-33" vertex="1">
                    <mxGeometry width="30.6" height="40" as="geometry"/>
                </mxCell>
                <mxCell id="zA4fir9lhN1XghX9136Q-35" value="user_id int NOT NULL" style="shape=partialRectangle;overflow=hidden;connectable=0;fillColor=none;top=0;left=0;bottom=0;right=0;align=left;spacingLeft=6;rounded=1;strokeColor=#909090;fontColor=#1A1A1A;" parent="zA4fir9lhN1XghX9136Q-33" vertex="1">
                    <mxGeometry x="36" width="219" height="40" as="geometry"/>
                </mxCell>
                <mxCell id="zA4fir9lhN1XghX9136Q-40" value="" style="edgeStyle=entityRelationEdgeStyle;fontSize=12;html=1;endArrow=ERzeroToMany;startArrow=ERmandOne;exitX=1;exitY=0.5;exitDx=0;exitDy=0;strokeColor=#182E3E;fontColor=#1A1A1A;labelBackgroundColor=#EEEEEE;" parent="1" source="C-vyLk0tnHw3VtMMgP7b-24" edge="1">
                    <mxGeometry width="100" height="100" relative="1" as="geometry">
                        <mxPoint x="370" y="220" as="sourcePoint"/>
                        <mxPoint x="420" y="270" as="targetPoint"/>
                    </mxGeometry>
                </mxCell>
                <mxCell id="2" value="" style="shape=partialRectangle;collapsible=0;dropTarget=0;pointerEvents=0;fillColor=none;points=[[0,0.5],[1,0.5]];portConstraint=eastwest;top=0;left=0;right=0;bottom=0;rounded=1;strokeColor=#909090;fontColor=#1A1A1A;" vertex="1" parent="1">
                    <mxGeometry x="24" y="433" width="260" height="30" as="geometry"/>
                </mxCell>
                <mxCell id="3" value="" style="shape=partialRectangle;overflow=hidden;connectable=0;fillColor=none;top=0;left=0;bottom=0;right=0;rounded=1;strokeColor=#909090;fontColor=#1A1A1A;" vertex="1" parent="2">
                    <mxGeometry width="30" height="30" as="geometry"/>
                </mxCell>
                <mxCell id="4" value="createdAt timestamp NOT NUL" style="shape=partialRectangle;overflow=hidden;connectable=0;fillColor=none;top=0;left=0;bottom=0;right=0;align=left;spacingLeft=6;rounded=1;strokeColor=#909090;fontColor=#1A1A1A;" vertex="1" parent="2">
                    <mxGeometry x="30" width="230" height="30" as="geometry"/>
                </mxCell>
                <mxCell id="5" value="" style="shape=partialRectangle;collapsible=0;dropTarget=0;pointerEvents=0;fillColor=none;points=[[0,0.5],[1,0.5]];portConstraint=eastwest;top=0;left=0;right=0;bottom=0;rounded=1;strokeColor=#909090;fontColor=#1A1A1A;" vertex="1" parent="1">
                    <mxGeometry x="21" y="463" width="279" height="30" as="geometry"/>
                </mxCell>
                <mxCell id="6" value="" style="shape=partialRectangle;overflow=hidden;connectable=0;fillColor=none;top=0;left=0;bottom=0;right=0;rounded=1;strokeColor=#909090;fontColor=#1A1A1A;" vertex="1" parent="5">
                    <mxGeometry width="32.19230769230769" height="30" as="geometry"/>
                </mxCell>
                <mxCell id="7" value="updatedAt datetime  NULL DEFAULT NULL" style="shape=partialRectangle;overflow=hidden;connectable=0;fillColor=none;top=0;left=0;bottom=0;right=0;align=left;spacingLeft=6;rounded=1;strokeColor=#909090;fontColor=#1A1A1A;" vertex="1" parent="5">
                    <mxGeometry x="32.19230769230769" width="246.8076923076923" height="30" as="geometry"/>
                </mxCell>
            </root>
        </mxGraphModel>
    </diagram>
</mxfile>